<?xml version="1.0" encoding="UTF-8"?><svg xmlns="http://www.w3.org/2000/svg" xmlns:xlink="http://www.w3.org/1999/xlink" height="560.3" preserveAspectRatio="xMidYMid meet" version="1.0" viewBox="-49.7 -4.1 5099.4 560.3" width="5099.4" zoomAndPan="magnify"><g><g id="change1_2"><path d="M2523.078,370.079c-20.061,20.061-4.232,54.408,19.275,41.827c13.483-7.216,12.122-20.122-1.995-18.928 c-5.084,0.43-9.244-1.47-9.244-4.221c0-10.206,27.83-4.848,33.919,6.529c17.541,32.775-41.368,86.441-56.625,111.74 c-7.714,12.791-7.128,3.104-46.654-41.063c-35.053-39.17-24.192-105.671,13.376-81.902c6.656,4.211,6.268,5.166-2.123,5.236 c-6.723,0.056-9.609,3.484-8.366,9.936c3.207,16.651,29.532,12.885,31.56-4.515c3.688-31.66-32.884-41.367-60.15-15.966 c-28.61,26.654-20.12,65.232,24.636,111.946c12.678,13.233,28.609,29.774,33.234,47.928c2.042,8.016,6.886,17.607,14.819,8.866 c7.753-8.543,11.683-33.49,51.369-83.497c12.38-15.599,27.29-35.146,27.29-56.295 C2587.4,379.907,2540.615,352.543,2523.078,370.079z" fill="inherit"/></g><g id="change1_3"><path d="M2509.234,438.423c-7.765-7.765-20.811,2.998-15.01,12.383C2503.824,466.339,2519.42,448.61,2509.234,438.423z" fill="inherit"/></g><g id="change1_4"><path d="M2459.347,300.883c-3.87-1.373-7.036,1.387-7.036,6.133c0,14.486-32.064,57.137-54.798,72.892 c-36.468,25.272-80.289,25.14-80.289-0.242c0-8.128,0.976-7.986,7.629,1.113c11.175,15.283,27.384,7.265,25.113-12.423 c-1.913-16.583-13.118-21.693-35.333-16.118c-39.297,9.863-6.164,97.703,78.183,50.56 C2435.546,378.915,2481.382,308.702,2459.347,300.883z" fill="inherit"/></g><g id="change1_5"><path d="M2696.926,335.241c-20.654-13.533-41.984-3.246-41.984,20.248c0,21.165,20.064,24.303,27.761,4.342 c4.407-11.428,5.28-11.682,8.944-2.604c20.25,50.167-60.172,40.044-111.284-14.007c-31.84-33.671-40.067-35.565-24.424-5.623 c10.551,20.196,34.814,42.319,62.334,56.838c26.509,13.985,39.689,14.701,66.257,3.6 C2715.253,385.197,2721.886,351.596,2696.926,335.241z" fill="inherit"/></g><g id="change1_6"><path d="M2498.333,334.969c-2.388,12.31,15.891,13.649,15.891-2.343C2514.224,318.91,2501.071,320.849,2498.333,334.969z" fill="inherit"/></g><g id="change1_7"><path d="M2518.471,295.106c3.361-10.205-15.647-15.879-21.616-6.452c-2.736,4.321-5.016,9.932-5.061,12.469 C2491.658,308.4,2515.893,302.934,2518.471,295.106z" fill="inherit"/></g><g id="change1_8"><path d="M2514.222,253.826c0-13.717-13.153-11.778-15.891,2.343C2495.943,268.479,2514.222,269.818,2514.222,253.826z" fill="inherit"/></g><g id="change1_1"><path d="M3474.458,509.072c4.509,4.509,19.15-1.392,19.15-7.719C3493.608,493.219,3459.873,494.487,3474.458,509.072z" fill="inherit"/><path d="M3627.787,291.642c99.478-48.152,139.377-174.586,57.646-182.669c-42.92-4.244-65.836,49.775-26.891,63.39 c25.229,8.82,52.062-18.073,31.214-31.285c-11.972-7.587-16.032-5.879-16.032,6.744c0,14.116-13.191,11.586-16.032-3.075 c-3.939-20.32,30.16-27.248,46.305-9.408c30.407,33.599-23.767,117.933-95.995,149.44l-23.508,10.254 c-19.653-16.929-50.646-44.718-76.851-59.615c-15.871-9.024-21.991-15.984-20.823-23.686 c13.072-86.245,10.654-107.654-16.644-147.329c-18.433-26.792-57.596-50.935-64.5-39.763c-2.265,3.664-1.769,7.454,1.101,8.423 c71.437,24.118,84.322,127.984,60.419,168.852c-13.598,23.242-17.013,9.426-39.432,3.547c-6.781-1.779-14.129-0.406-20.625-2.577 c-8.619-2.879-7.416-14.1-7.713-21.559c-2.493-62.509-85.932-82.113-85.932-20.19c0,20.022,15.043,29.907,27.018,17.753 c9.007-9.142,8.958-10.163-0.846-17.435c-12.936-9.595-7.482-19.731,10.616-19.731c41.296,0,41.098,58.729-0.203,59.894 c-15.479,0.437-43.34,3.337-61.915,6.445c-61.965,10.368-76.27-57.253-26.736-126.387c16.34-22.805,16.702-33.476,0.759-22.309 c-20.601,14.43-34.473,49.002-41.306,73.275c-8.266,29.365,5.984,63.505,8.447,71.502c7.4,24.031-54.636,28.19-98.764,47.172 c-51.383,22.103-77.056,30.793-182.573,61.795c-16.83,4.945-56.09,10.503-87.244,12.352c-76.789,4.557-62.636,14.598-86.795,9.766 c-26.438-5.287-21.514,6.177,6.23,14.507c74.183,22.272,50.38,21.586,271.581,59.89c93.573,16.203,289.874,3.359,289.874,17.171 c0,4.676,2.801,9.681,4.788,13.753c45.067,92.329,125.922,64.717,86.676,52.309c-118.161-37.366-91.938-202.625,28.564-180.019 c66.959,12.562,70.165,117.478,3.59,117.478c-36.208,0-59.728-35.032-38.064-56.695c10.01-10.011,15.76-8.225,15.76,4.894 c0,8.861,3.031,11.218,12.664,9.85c19.726-2.802,17.288-27.463-3.398-34.357c-39.503-13.168-65.76,44.888-34.458,76.19 c40.98,40.98,106.495,15.357,112.928-44.167c11.736-108.599-139.719-128.846-181.511-24.265 c-18.322,45.849-91.417,55.053-266.457,33.554c-199.31-24.48-310.682-52.112-220.455-54.697 c83.129-2.381,172.551-35.406,374.519-108.871c61.258,22.92,82.44,34.501,134.164,2.575c49.876-30.785,33.701-8.177,66.005-8.177 c39.966,0-34.311,57.393-90.718,70.097c-71.251,16.047,17.025,39.249,103.082-36.351c27.886-24.497,39.113-23.735,79.696,5.41 c68.098,48.904,85.746,153.904,32.771,194.98c-5.274,4.089-5.948,7.424-1.992,9.868c10.878,6.723,23.213-2.679,34.633-26.398 c19.696-40.908,20.472-68.806,3.47-124.734C3595.041,309.639,3600.01,305.087,3627.787,291.642z M3353.262,231.582 c-12.926,6.918-54.817,7.035-70.728,0.198c-13.319-5.724-13.992-5.494,25.329-8.661c17.027-1.372,36.656-3.832,43.622-5.466 C3366.993,214.013,3368.214,223.58,3353.262,231.582z" fill="inherit"/><path d="M3521.751,491.076c0,7.248,20.997,6.629,25.56-0.754C3558.854,471.646,3521.751,483.154,3521.751,491.076z" fill="inherit"/><path d="M3686.658,281.345c-70.827,34.636-71.364,34.977-65.014,41.326c5.749,5.749,20.687-0.139,119.619-47.154 c92.871-44.133,149.259-62.3,149.158-62.263c152.763-56.74,289.874-12.261,289.874,94.038c0,51.749-66.64,89.689-92.553,52.694 c-14.855-21.208,1.461-63.295,20.077-51.79c3.978,2.458,4.054,5.514,0.234,9.334c-7.807,7.807-1.759,21.194,9.576,21.194 c20.235,0,26.198-23.387,9.601-37.664c-34.249-29.463-70.722,13.009-62.828,47.75c9.918,43.65,86.148,61.07,120.063,5.607 c23.915-39.109,14.5-90.117-14.883-123.496C4088.901,139.262,3946.88,154.091,3686.658,281.345z" fill="inherit"/><path d="M4107.124,237.295c0-7.588-9.18-6.908-30.107,2.232c-246.575,107.695-452.223,119.324-458.232,137.361 C3606.072,415.029,4107.124,271.111,4107.124,237.295z" fill="inherit"/><path d="M3262.83,372.75c9.489-3.965,67.543,6.039,67.543-7.293c0-14.54-205.116-1.627-312.388-11.869 c-33.9-3.237-48.795-2.968-45.029,0.814c18.722,18.794,133.276,17.221,136.584,20.529 C3111.421,376.812,3258.102,374.724,3262.83,372.75z" fill="inherit"/><path d="M3168.537,292.786l-3.08-11.778l-9.007,11.445c-11.937,15.17-45.573,34.945-59.664,35.078 c-6.191,0.059-22.655,3.698-36.586,8.087c-33.899,10.682-36.843,7.858,9.736,8.358 C3127.026,344.59,3175.502,319.422,3168.537,292.786z" fill="inherit"/><path d="M2742.183,327.467c-12.713,0-2.138,11.257,0,11.257C2744.201,338.725,2754.952,327.467,2742.183,327.467z" fill="inherit"/><path d="M3271.743,321.839c17.633,0,15.703-13.219-2.317-15.87c-8.118-1.194-12.224,1.169-12.224,7.036 C3257.202,318.751,3262.284,321.839,3271.743,321.839z" fill="inherit"/><path d="M3026.227,188.16c46.769-39.993,100.731-37.64,87.573,3.818c-4.49,14.147-18.891,15.613-17.795,1.81 c1.048-13.205-18.612-12.946-26.748,0.352c-5.085,8.311-3.778,12.225,7.046,21.107c37.802,31.022,76.562-19.083,45.404-58.694 c-22.46-28.553-74.608-17.222-115.719,25.144c-96.943,99.903-247.679,142.472-375.095,105.93 c-18.434-5.287-24.229-3.74-18.814,5.022c3.037,4.913,6.67,7.502,50.691,14.136 C2863.037,336.966,2951.106,252.397,3026.227,188.16z" fill="inherit"/><path d="M3240.316,304.776c0-6.739-15.876-13.966-20.507-9.336c-1.725,1.724-1.466,5.837,0.575,9.138 C3225.135,312.265,3240.316,312.416,3240.316,304.776z" fill="inherit"/><path d="M2590.208,282.439c5.164,8.356,8.443,6.374,8.443,0C2598.651,274.918,2585.58,274.949,2590.208,282.439z" fill="inherit"/><path d="M4219.692,213.593c-35.741,17.071-21.505,26.451,16.275,10.723c135.718-56.498,238.63-79.308,291.705-64.653 c43.542,12.023,60.606,52.3,32.509,76.73c-23.368,20.318-55.365,10.026-44.745-14.392c4.096-9.418,4.435-9.422,6.671-0.071 c2.557,10.691,29.674,14.211,29.674,3.851c0-25.783-25.113-38.21-43.09-21.322c-21.265,19.977-14.37,46.32,14.947,57.099 c48.608,17.873,88.187-49.41,53.391-90.763C4533.727,119.335,4377.983,137.988,4219.692,213.593z" fill="inherit"/><path d="M4807.889,0.083c-93.829,2.031-110.745,14.576-21.116,15.66c131.442,1.59,192.78,35.406,192.78,106.28 c0,62.534-71.217,110.514-116.724,78.639c-28.657-20.072-17.058-77.71,14.975-74.414c15.101,1.554,23.508,15.475,9.346,15.475 c-11.081,0-11.803,16.13-0.909,20.31c12.078,4.635,31.397-7.984,31.397-20.508c0-20.035-20.549-31.909-38.461-33.047 c-38.108-2.42-59.512,42.774-49.951,75.197c16.356,55.465,80.607,49.58,120.882,25.243 C5049.681,148.748,4999.172-4.058,4807.889,0.083z" fill="inherit"/><path d="M4243.407,163.226c-21.756,8.778-43.602,17.975-62.926,31.087c-1.286,0.873-5.819,3.17-5.819,5.121 c0,16.316,107.514-33.866,122.008-40.204c119.871-52.421,167.382-67.724,229.721-91.101 c44.044-15.772,60.163-27.721,37.395-27.721C4531.928,40.408,4305.597,138.143,4243.407,163.226z" fill="inherit"/><path d="M3292.028,50.375c10.437-3.479,12.167-15.596,2.228-15.596C3282.119,34.779,3283.478,53.225,3292.028,50.375z" fill="inherit"/><path d="M4605.254,29.15c-11.169,0-11.157,16.886,0,16.886C4616.423,46.036,4616.412,29.15,4605.254,29.15z" fill="inherit"/><path d="M4653.177,15.077c-4.601,0-9.264,4.663-10.361,10.361c-1.448,7.522,0.844,9.814,8.366,8.366 C4663.5,31.433,4665.242,15.077,4653.177,15.077z" fill="inherit"/><path d="M3327.448,14.344c-15.385,5.904,2.509,23.517,11.602,8.803C3344.231,14.766,3338.225,10.208,3327.448,14.344z" fill="inherit"/><path d="M3361.102,23.147c9.049,14.641,27.027-2.885,11.603-8.804C3361.928,10.208,3355.922,14.766,3361.102,23.147z" fill="inherit"/><path d="M4691.097,7.707c-9.702-1.869-13.713,10.075-5.98,17.808c5.9,5.9,15.831,0.873,15.831-8.014 C4700.947,13.158,4696.514,8.751,4691.097,7.707z" fill="inherit"/></g><g id="change1_9"><path d="M1525.542,509.072c-4.509,4.509-19.15-1.392-19.15-7.719C1506.392,493.219,1540.127,494.487,1525.542,509.072z" fill="inherit"/><path d="M1372.213,291.642c-99.478-48.152-139.377-174.586-57.646-182.669c42.92-4.244,65.836,49.775,26.891,63.39 c-25.229,8.82-52.062-18.073-31.214-31.285c11.972-7.587,16.032-5.879,16.032,6.744c0,14.116,13.191,11.586,16.033-3.075 c3.939-20.32-30.16-27.248-46.305-9.408c-30.407,33.599,23.767,117.933,95.995,149.44l23.508,10.254 c19.653-16.929,50.646-44.718,76.851-59.615c15.871-9.024,21.991-15.984,20.824-23.686 c-13.072-86.245-10.654-107.654,16.643-147.329c18.433-26.792,57.596-50.935,64.501-39.763c2.265,3.664,1.769,7.454-1.101,8.423 c-71.437,24.118-84.322,127.984-60.419,168.852c13.598,23.242,17.013,9.426,39.432,3.547c6.782-1.779,14.129-0.406,20.625-2.577 c8.619-2.879,7.416-14.1,7.713-21.559c2.493-62.509,85.932-82.113,85.932-20.19c0,20.022-15.043,29.907-27.018,17.753 c-9.007-9.142-8.958-10.163,0.846-17.435c12.935-9.595,7.482-19.731-10.616-19.731c-41.296,0-41.098,58.729,0.203,59.894 c15.479,0.437,43.34,3.337,61.915,6.445c61.965,10.368,76.27-57.253,26.736-126.387c-16.339-22.805-16.702-33.476-0.759-22.309 c20.601,14.43,34.473,49.002,41.306,73.275c8.266,29.365-5.984,63.505-8.446,71.502c-7.4,24.031,54.636,28.19,98.764,47.172 c51.382,22.103,77.056,30.793,182.573,61.795c16.83,4.945,56.09,10.503,87.244,12.352c76.789,4.557,62.636,14.598,86.795,9.766 c26.438-5.287,21.514,6.177-6.23,14.507c-74.183,22.272-50.38,21.586-271.581,59.89c-93.572,16.203-289.874,3.359-289.874,17.171 c0,4.676-2.801,9.681-4.788,13.753c-45.067,92.329-125.922,64.717-86.676,52.309c118.161-37.366,91.938-202.625-28.564-180.019 c-66.959,12.562-70.165,117.478-3.59,117.478c36.208,0,59.728-35.032,38.064-56.695c-10.011-10.011-15.76-8.225-15.76,4.894 c0,8.861-3.031,11.218-12.664,9.85c-19.726-2.802-17.288-27.463,3.398-34.357c39.503-13.168,65.76,44.888,34.458,76.19 c-40.98,40.98-106.495,15.357-112.928-44.167c-11.736-108.599,139.719-128.846,181.511-24.265 c18.322,45.849,91.417,55.053,266.457,33.554c199.31-24.48,310.682-52.112,220.455-54.697 c-83.129-2.381-172.551-35.406-374.519-108.871c-61.258,22.92-82.44,34.501-134.164,2.575 c-49.875-30.785-33.701-8.177-66.005-8.177c-39.966,0,34.31,57.393,90.717,70.097c71.251,16.047-17.025,39.249-103.082-36.351 c-27.886-24.497-39.113-23.735-79.696,5.41c-68.098,48.904-85.746,153.904-32.771,194.98c5.274,4.089,5.947,7.424,1.993,9.868 c-10.878,6.723-23.214-2.679-34.633-26.398c-19.696-40.908-20.472-68.806-3.47-124.734 C1404.959,309.639,1399.99,305.087,1372.213,291.642z M1646.738,231.582c12.926,6.918,54.817,7.035,70.728,0.198 c13.32-5.724,13.992-5.494-25.329-8.661c-17.027-1.372-36.656-3.832-43.622-5.466 C1633.007,214.013,1631.786,223.58,1646.738,231.582z" fill="inherit"/><path d="M1478.249,491.076c0,7.248-20.997,6.629-25.56-0.754C1441.146,471.646,1478.249,483.154,1478.249,491.076z" fill="inherit"/><path d="M1313.342,281.345c70.827,34.636,71.364,34.977,65.015,41.326c-5.749,5.749-20.687-0.139-119.62-47.154 c-92.871-44.133-149.258-62.3-149.158-62.263c-152.763-56.74-289.874-12.261-289.874,94.038c0,51.749,66.64,89.689,92.553,52.694 c14.855-21.208-1.461-63.295-20.077-51.79c-3.978,2.458-4.055,5.514-0.235,9.334c7.807,7.807,1.759,21.194-9.575,21.194 c-20.235,0-26.198-23.387-9.601-37.664c34.249-29.463,70.722,13.009,62.828,47.75c-9.918,43.65-86.148,61.07-120.063,5.607 c-23.914-39.109-14.499-90.117,14.883-123.496C911.099,139.262,1053.12,154.091,1313.342,281.345z" fill="inherit"/><path d="M892.876,237.295c0-7.588,9.18-6.908,30.107,2.232c246.575,107.695,452.223,119.324,458.232,137.361 C1393.928,415.029,892.876,271.111,892.876,237.295z" fill="inherit"/><path d="M1737.17,372.75c-9.489-3.965-67.543,6.039-67.543-7.293c0-14.54,205.116-1.627,312.388-11.869 c33.901-3.237,48.796-2.968,45.029,0.814c-18.722,18.794-133.276,17.221-136.584,20.529 C1888.579,376.812,1741.898,374.724,1737.17,372.75z" fill="inherit"/><path d="M1831.463,292.786l3.08-11.778l9.007,11.445c11.937,15.17,45.573,34.945,59.664,35.078 c6.191,0.059,22.655,3.698,36.586,8.087c33.9,10.682,36.843,7.858-9.736,8.358C1872.974,344.59,1824.498,319.422,1831.463,292.786 z" fill="inherit"/><path d="M2257.817,327.467c12.713,0,2.138,11.257,0,11.257C2255.799,338.725,2245.048,327.467,2257.817,327.467z" fill="inherit"/><path d="M1728.257,321.839c-17.633,0-15.703-13.219,2.317-15.87c8.118-1.194,12.224,1.169,12.224,7.036 C1742.798,318.751,1737.716,321.839,1728.257,321.839z" fill="inherit"/><path d="M1973.773,188.16c-46.769-39.993-100.731-37.64-87.573,3.818c4.49,14.147,18.891,15.613,17.796,1.81 c-1.048-13.205,18.612-12.946,26.748,0.352c5.085,8.311,3.778,12.225-7.046,21.107c-37.802,31.022-76.562-19.083-45.404-58.694 c22.46-28.553,74.608-17.222,115.719,25.144c96.943,99.903,247.679,142.472,375.095,105.93c18.434-5.287,24.229-3.74,18.814,5.022 c-3.037,4.913-6.67,7.502-50.691,14.136C2136.963,336.966,2048.894,252.397,1973.773,188.16z" fill="inherit"/><path d="M1759.684,304.776c0-6.739,15.876-13.966,20.506-9.336c1.725,1.724,1.466,5.837-0.575,9.138 C1774.865,312.265,1759.684,312.416,1759.684,304.776z" fill="inherit"/><path d="M2409.792,282.439c-5.164,8.356-8.443,6.374-8.443,0C2401.349,274.918,2414.42,274.949,2409.792,282.439z" fill="inherit"/><path d="M780.308,213.593c35.741,17.071,21.505,26.451-16.275,10.723c-135.718-56.498-238.63-79.308-291.705-64.653 c-43.542,12.023-60.606,52.3-32.509,76.73c23.367,20.318,55.364,10.026,44.745-14.392c-4.096-9.418-4.434-9.422-6.671-0.071 c-2.557,10.691-29.674,14.211-29.674,3.851c0-25.783,25.113-38.21,43.09-21.322c21.265,19.977,14.37,46.32-14.947,57.099 c-48.608,17.873-88.187-49.41-53.391-90.763C466.273,119.335,622.016,137.988,780.308,213.593z" fill="inherit"/><path d="M192.111,0.083c93.829,2.031,110.745,14.576,21.116,15.66c-131.442,1.59-192.78,35.406-192.78,106.28 c0,62.534,71.217,110.514,116.724,78.639c28.657-20.072,17.058-77.71-14.975-74.414c-15.1,1.554-23.508,15.475-9.346,15.475 c11.081,0,11.803,16.13,0.909,20.31c-12.078,4.635-31.397-7.984-31.397-20.508c0-20.035,20.549-31.909,38.461-33.047 c38.108-2.42,59.512,42.774,49.951,75.197c-16.357,55.465-80.607,49.58-120.882,25.243C-49.681,148.748,0.828-4.058,192.111,0.083 z" fill="inherit"/><path d="M756.593,163.226c21.756,8.778,43.602,17.975,62.926,31.087c1.286,0.873,5.819,3.17,5.819,5.121 c0,16.316-107.514-33.866-122.008-40.204c-119.871-52.421-167.382-67.724-229.721-91.101 c-44.044-15.772-60.163-27.721-37.395-27.721C468.072,40.408,694.403,138.143,756.593,163.226z" fill="inherit"/><path d="M1707.973,50.375c-10.437-3.479-12.168-15.596-2.228-15.596C1717.881,34.779,1716.522,53.225,1707.973,50.375z" fill="inherit"/><path d="M394.746,29.15c11.169,0,11.157,16.886,0,16.886C383.577,46.036,383.589,29.15,394.746,29.15z" fill="inherit"/><path d="M346.823,15.077c4.601,0,9.264,4.663,10.361,10.361c1.448,7.522-0.844,9.814-8.366,8.366 C336.5,31.433,334.758,15.077,346.823,15.077z" fill="inherit"/><path d="M1672.552,14.344c15.385,5.904-2.509,23.517-11.603,8.803C1655.769,14.766,1661.776,10.208,1672.552,14.344z" fill="inherit"/><path d="M1638.898,23.147c-9.049,14.641-27.027-2.885-11.603-8.804C1638.072,10.208,1644.078,14.766,1638.898,23.147z" fill="inherit"/><path d="M308.903,7.707c9.702-1.869,13.713,10.075,5.98,17.808c-5.9,5.9-15.831,0.873-15.831-8.014 C299.053,13.158,303.486,8.751,308.903,7.707z" fill="inherit"/></g></g></svg>