<?xml version="1.0" encoding="UTF-8" standalone="no"?>
<svg
   height="354.29999"
   preserveAspectRatio="xMidYMid"
   version="1.0"
   viewBox="-49.7 -4.1 5099.4 354.3"
   width="5099.3999"
   zoomAndPan="magnify"
   id="svg111"
   sodipodi:docname="asset-top2.svg"
   inkscape:version="1.2.1 (9c6d41e410, 2022-07-14)"
   xmlns:inkscape="http://www.inkscape.org/namespaces/inkscape"
   xmlns:sodipodi="http://sodipodi.sourceforge.net/DTD/sodipodi-0.dtd"
   xmlns="http://www.w3.org/2000/svg"
   xmlns:svg="http://www.w3.org/2000/svg">
  <defs
     id="defs115" />
  <sodipodi:namedview
     id="namedview113"
     pagecolor="#ffffff"
     bordercolor="#000000"
     borderopacity="0.25"
     inkscape:showpageshadow="2"
     inkscape:pageopacity="0.0"
     inkscape:pagecheckerboard="0"
     inkscape:deskcolor="#d1d1d1"
     showgrid="false"
     inkscape:zoom="0.16445634"
     inkscape:cx="2882.2239"
     inkscape:cy="24.322565"
     inkscape:window-width="1920"
     inkscape:window-height="1017"
     inkscape:window-x="-8"
     inkscape:window-y="-8"
     inkscape:window-maximized="1"
     inkscape:current-layer="svg111" />
  <path
     d="m 2498.333,334.969 c -2.388,12.31 15.891,13.649 15.891,-2.343 0,-13.716 -13.153,-11.777 -15.891,2.343 z"
     fill="inherit"
     id="path14" />
  <path
     d="m 2518.471,295.106 c 3.361,-10.205 -15.647,-15.879 -21.616,-6.452 -2.736,4.321 -5.016,9.932 -5.061,12.469 -0.136,7.277 24.099,1.811 26.677,-6.017 z"
     fill="inherit"
     id="path17" />
  <path
     d="m 2514.222,253.826 c 0,-13.717 -13.153,-11.778 -15.891,2.343 -2.388,12.31 15.891,13.649 15.891,-2.343 z"
     fill="inherit"
     id="path20" />
  <path
     d="M 1384.0847,180.21951 C 1276.0111,137.48549 1239.1402,44.354783 1330.8135,45.666271 c 48.1411,0.689199 70.4421,40.985284 26.1694,47.286464 -28.6804,4.082015 -56.9914,-17.308773 -32.9332,-24.884092 13.8154,-4.350124 18.2418,-2.788495 17.4787,6.166157 -0.8533,10.013784 14.0163,9.356125 18.0734,-0.799279 5.6229,-14.075294 -32.0014,-21.929417 -51.0923,-10.665612 -35.9553,21.213663 19.3868,85.709531 98.0647,114.286661 l 25.6073,9.30058 c 22.9496,-10.31514 59.2073,-27.35674 89.344,-35.66558 18.2523,-5.03342 25.5009,-9.44323 24.6646,-15.00756 -9.3704,-62.308371 -5.3785,-77.287302 27.4743,-103.079335 22.1847,-17.417043 67.3371,-31.1679097 74.3654,-22.647344 2.3055,2.794463 1.523,5.440303 -1.7375,5.880298 -81.1579,10.950999 -101.8122,83.521981 -77.6149,114.573951 13.7658,17.65987 18.411,8.15329 43.7786,5.91538 7.674,-0.67737 15.7878,0.92996 23.1664,-0.0502 9.79,-1.29937 9.1262,-9.36315 9.9084,-14.62891 6.5601,-44.128483 100.8355,-50.84266 97.0922,-6.91498 -1.2104,14.20346 -18.591,19.91903 -31.2163,10.2648 -9.4962,-7.26171 -9.3798,-7.98178 1.9978,-12.29533 15.0112,-5.69158 9.5402,-13.35204 -10.6511,-14.91215 -46.0727,-3.559864 -49.4021,38.11909 -3.3943,42.50582 17.243,1.64435 48.1514,6.10332 68.687,9.90933 68.5056,12.69658 88.553,-34.04008 37.4688,-87.353193 -16.8503,-17.586167 -16.6103,-25.187388 0.5018,-15.891259 22.1116,12.012405 35.4982,37.733323 41.6543,55.541422 7.4469,21.54387 -10.5152,44.53411 -13.7454,49.99489 -9.7086,16.40949 59.2516,24.70758 107.3363,41.97725 55.9891,20.10901 84.1074,28.48682 199.9553,59.57533 18.4777,4.95874 61.9429,12.28591 96.5887,16.28315 85.3955,9.85219 68.9985,15.75516 96.244,14.40996 29.8157,-1.47151 23.6291,6.2365 -7.8276,9.75411 -84.11,9.40474 -57.5123,10.96999 -306.6148,19.07423 -105.3748,3.42805 -323.6063,-22.60533 -324.4412,-12.8072 -0.2827,3.31711 -3.7102,6.62618 -6.1732,9.34353 -55.8613,61.61253 -144.3995,35.0548 -99.8639,29.63581 134.0873,-16.32125 114.8214,-135.81519 -20.9854,-130.16637 -75.4635,3.13928 -85.3827,77.28949 -11.1071,83.02848 40.3961,3.12127 68.7544,-19.70265 45.8941,-36.93773 -10.5637,-7.96471 -17.0857,-7.19332 -17.8787,2.11321 -0.5357,6.28591 -4.0598,7.69668 -14.7243,5.89582 -21.8383,-3.68816 -17.6275,-20.97232 5.8679,-24.07966 44.8683,-5.93598 70.6528,37.51194 33.838,57.01898 -48.1975,25.53827 -119.7415,1.71389 -123.3203,-41.06652 -6.5285,-78.05095 163.669,-79.35804 203.973,-1.56649 17.6696,34.10434 98.6629,46.93462 295.2492,46.77248 223.8437,-0.18468 349.7683,-10.18594 249.2612,-19.79761 -92.6005,-8.85508 -190.3694,-39.99125 -411.2576,-109.51711 -69.7291,10.97862 -94.0613,17.36812 -149.8382,-9.73873 -53.7829,-26.13803 -37.1048,-8.70584 -73.1453,-11.49056 -44.5889,-3.44521 34.8091,43.67179 96.9725,57.54639 78.5225,17.52571 -21.3669,26.37531 -112.8078,-34.67315 -29.6307,-19.78185 -42.2024,-20.2091 -89.2413,-3.03227 -78.9311,28.82182 -104.9679,101.78667 -48.3485,135.4923 5.6369,3.35534 6.1861,5.77917 1.6271,7.17208 -12.5427,3.83152 -25.7372,-3.90159 -37.0432,-21.71202 -19.5012,-30.71768 -18.6805,-50.57519 3.669,-88.78445 3.7469,-6.41125 -1.5216,-10.06874 -31.6988,-22.00099 z m 309.9096,-18.94107 c 14.0029,6.02185 60.7323,9.71601 78.897,6.23747 15.2067,-2.91232 15.9426,-2.69123 -27.7352,-8.32749 -18.9135,-2.44108 -40.6642,-5.87827 -48.3372,-7.63791 -17.0818,-3.91903 -19.0224,2.76247 -2.8246,9.72793 z"
     fill="inherit"
     id="path68"
     style="stroke-width:0.892557" />
  <path
     d="m 1341.5103,279.85167 c 65.7708,43.47783 66.2593,43.88521 59.1448,49.36273 -6.4422,4.95988 -20.4964,-2.80476 -112.5428,-62.18165 -86.4065,-55.73744 -139.9809,-81.02213 -139.8865,-80.97255 -144.1734,-75.96038 -285.87442,-49.52858 -299.57824,55.88338 -6.67137,51.31717 54.5214,97.53165 84.98748,64.18601 17.46513,-19.11595 6.71104,-62.95517 -13.23281,-53.94611 -4.26169,1.92466 -4.73202,4.94523 -1.43636,9.22582 6.73539,8.74831 -0.98796,21.24391 -12.22738,19.78275 -20.06615,-2.60865 -22.96439,-26.56923 -4.66533,-38.58744 37.76151,-24.80184 68.45476,22.01776 56.1479,55.45118 -15.4625,42.00715 -93.30213,49.45439 -119.78395,-9.91804 -18.6726,-41.86558 -2.76033,-91.23417 30.67963,-120.54678 91.82421,-80.492919 230.74836,-47.47863 472.39356,112.2607 z"
     fill="inherit"
     id="path72" />
  <path
     d="m 880.08482,197.461 c 0,-7.588 9.18,-6.908 30.107,2.232 246.57498,107.695 452.22298,119.324 458.23198,137.361 12.713,38.141 -488.33898,-105.777 -488.33898,-139.593 z"
     fill="inherit"
     id="path74" />
  <path
     d="m 1734.7206,228.29106 3.08,-11.778 9.007,11.445 c 11.937,15.17 45.573,34.945 59.664,35.078 6.191,0.059 22.655,3.698 36.586,8.087 33.9,10.682 36.843,7.858 -9.736,8.358 -57.09,0.614 -105.566,-24.554 -98.601,-51.19 z"
     fill="inherit"
     id="path78" />
  <path
     d="m 2257.817,327.467 c 12.713,0 2.138,11.257 0,11.257 -2.018,0.001 -12.769,-11.257 0,-11.257 z"
     fill="inherit"
     id="path80" />
  <path
     d="m 1728.257,321.839 c -17.633,0 -15.703,-13.219 2.317,-15.87 8.118,-1.194 12.224,1.169 12.224,7.036 0,5.746 -5.082,8.834 -14.541,8.834 z"
     fill="inherit"
     id="path82" />
  <path
     d="m 2093.7413,108.82664 c -37.2407,-48.988883 -90.4775,-58.114877 -86.3959,-14.81084 1.3928,14.77694 15.1569,19.25889 17.0093,5.536998 1.7717,-13.127502 20.9311,-8.711664 26.067,6.007512 3.21,9.19923 1.1039,12.74775 -11.3553,19.13655 -43.5134,22.31464 -70.7856,-34.861186 -31.947,-66.97685 27.9964,-23.15005 76.5629,-1.034398 107.7714,49.07568 73.5921,118.16414 211.8971,191.68406 344.1614,182.949 19.1355,-1.264 24.4716,1.47493 17.3241,8.89172 -4.0084,4.15857 -8.1072,5.91964 -52.5347,3.08244 -202.1177,-12.90704 -270.2838,-114.20591 -330.1003,-192.89221 z"
     fill="inherit"
     id="path84" />
  <path
     d="m 1759.684,304.776 c 0,-6.739 15.876,-13.966 20.506,-9.336 1.725,1.724 1.466,5.837 -0.575,9.138 -4.75,7.687 -19.931,7.838 -19.931,0.198 z"
     fill="inherit"
     id="path86" />
  <path
     d="m 2409.792,282.439 c -5.164,8.356 -8.443,6.374 -8.443,0 0,-7.521 13.071,-7.49 8.443,0 z"
     fill="inherit"
     id="path88" />
  <path
     d="m 780.308,213.593 c 35.741,17.071 21.505,26.451 -16.275,10.723 -135.718,-56.498 -238.63,-79.308 -291.705,-64.653 -43.542,12.023 -60.606,52.3 -32.509,76.73 23.367,20.318 55.364,10.026 44.745,-14.392 -4.096,-9.418 -4.434,-9.422 -6.671,-0.071 -2.557,10.691 -29.674,14.211 -29.674,3.851 0,-25.783 25.113,-38.21 43.09,-21.322 21.265,19.977 14.37,46.32 -14.947,57.099 -48.608,17.873 -88.187,-49.41 -53.391,-90.763 43.302,-51.46 199.045,-32.807 357.337,42.798 z"
     fill="inherit"
     id="path90" />
  <path
     d="M 184.72404,7.1351838 C 278.13098,-1.983536 296.41623,8.4652625 207.5493,20.178524 77.224916,37.356461 20.333588,78.212904 28.744719,148.58603 c 7.421362,62.09207 83.829191,101.28115 125.231751,64.23077 26.07239,-23.33108 7.71504,-79.18521 -23.70042,-72.11092 -14.80886,3.33505 -21.50533,18.1555 -7.44342,16.4748 11.00269,-1.31507 13.63385,14.61526 3.31291,20.05859 -11.44257,6.03562 -32.122624,-4.20147 -33.608938,-16.63696 -2.377699,-19.89341 16.616898,-34.1222 34.267258,-37.3779 37.55149,-6.92545 64.16772,35.40899 58.52217,68.73753 -9.65897,57.01422 -74.15333,58.79582 -117.031944,39.41054 C -37.716029,183.44476 -5.698577,25.724387 184.72404,7.1351838 Z"
     fill="inherit"
     id="path92" />
  <path
     d="m 775.94148,143.87752 c 21.756,8.778 43.602,17.975 62.926,31.087 1.286,0.873 5.819,3.17 5.819,5.121 0,16.316 -107.514,-33.866 -122.008,-40.204 -119.871,-52.421001 -167.382,-67.724002 -229.721,-91.101002 -44.044,-15.772 -60.163,-27.721 -37.395,-27.721 31.858,0 258.189,97.735002 320.379,122.818002 z"
     fill="inherit"
     id="path94" />
  <path
     d="m 1707.973,50.375 c -10.437,-3.479 -12.168,-15.596 -2.228,-15.596 12.136,0 10.777,18.446 2.228,15.596 z"
     fill="inherit"
     id="path96" />
  <path
     d="m 408.746,13.15 c 11.169,0 11.157,16.886 0,16.886 -11.169,0 -11.157,-16.886 0,-16.886 z"
     fill="inherit"
     id="path98" />
  <path
     d="m 352.823,5.077 c 4.601,0 9.264,4.663 10.361,10.361 1.448,7.522 -0.844,9.814 -8.366,8.366 C 342.5,21.433 340.758,5.077 352.823,5.077 Z"
     fill="inherit"
     id="path100" />
  <path
     d="m 1672.552,14.344 c 15.385,5.904 -2.509,23.517 -11.603,8.803 -5.18,-8.381 0.827,-12.939 11.603,-8.803 z"
     fill="inherit"
     id="path102" />
  <path
     d="m 1638.898,23.147 c -9.049,14.641 -27.027,-2.885 -11.603,-8.804 10.777,-4.135 16.783,0.423 11.603,8.804 z"
     fill="inherit"
     id="path104" />
  <path
     d="m 298.903,1.707 c 9.702,-1.869 13.713,10.075 5.98,17.808 -5.9,5.9 -15.831,0.873 -15.831,-8.014 10e-4,-4.343 4.434,-8.75 9.851,-9.794 z"
     fill="inherit"
     id="path106" />
  <g
     id="g603"
     transform="matrix(-1,0,0,1,5067.2584,281.6279)">
    <path
       d="m 1440.6026,-102.86592 c -108.0736,-42.73402 -144.9445,-135.86473 -53.2712,-134.55324 48.1411,0.6892 70.4421,40.98529 26.1694,47.28647 -28.6804,4.08201 -56.9914,-17.30878 -32.9332,-24.8841 13.8154,-4.35012 18.2418,-2.78849 17.4787,6.16616 -0.8533,10.01378 14.0163,9.35613 18.0734,-0.79928 5.6229,-14.07529 -32.0014,-21.92942 -51.0923,-10.66561 -35.9553,21.21366 19.3868,85.70953 98.0647,114.28666 l 25.6073,9.30058 c 22.9496,-10.31514 59.2073,-27.35674 89.344,-35.66558 18.2523,-5.03342 25.5009,-9.44323 24.6646,-15.00756 -9.3704,-62.30837 -5.3785,-77.2873 27.4743,-103.07933 22.1847,-17.41705 67.3371,-31.16791 74.3654,-22.64735 2.3055,2.79446 1.523,5.4403 -1.7375,5.8803 -81.1579,10.951 -101.8122,83.52198 -77.6149,114.57395 13.7658,17.65987 18.411,8.15329 43.7786,5.91538 7.674,-0.67737 15.7878,0.92996 23.1664,-0.0502 9.79,-1.29937 9.1262,-9.36315 9.9084,-14.62891 6.5601,-44.12848 100.8355,-50.84266 97.0922,-6.91498 -1.2104,14.20346 -18.591,19.91903 -31.2163,10.2648 -9.4962,-7.26171 -9.3798,-7.98178 1.9978,-12.29533 15.0112,-5.69158 9.5402,-13.35204 -10.6511,-14.91215 -46.0727,-3.55986 -49.4021,38.11909 -3.3943,42.50582 17.243,1.64435 48.1514,6.10332 68.687,9.90933 68.5056,12.69658 88.553,-34.04008 37.4688,-87.35319 -16.8503,-17.58617 -16.6103,-25.18739 0.5018,-15.89126 22.1116,12.0124 35.4982,37.73332 41.6543,55.54142 7.4469,21.54387 -10.5152,44.53411 -13.7454,49.99489 -9.7086,16.40949 59.2516,24.70758 107.3363,41.97725 55.9891,20.10901 84.1074,28.48682 199.9553,59.57533 18.4777,4.95874 61.9429,12.28591 96.5887,16.28315 85.3955,9.85219 68.9985,15.75516 96.244,14.40996 29.8157,-1.47151 23.6291,6.2365 -7.8276,9.75411 -84.11,9.40474 -57.5123,10.96999 -306.6148,19.07423 -105.3748,3.42805 -323.6063,-22.60533 -324.4412,-12.8072 -0.2827,3.31711 -3.7102,6.62618 -6.1732,9.34353 -55.8613,61.61253 -144.3995,35.0548 -99.8639,29.63581 134.0873,-16.32125 114.8214,-135.81519 -20.9854,-130.16637 -75.4635,3.13928 -85.3827,77.28949 -11.1071,83.02848 40.3961,3.12127 68.7544,-19.70265 45.8941,-36.93773 -10.5637,-7.96471 -17.0857,-7.19332 -17.8787,2.11321 -0.5357,6.28591 -4.0598,7.69668 -14.7243,5.89582 -21.8383,-3.68816 -17.6275,-20.97232 5.8679,-24.07966 44.8683,-5.93598 70.6528,37.51194 33.838,57.01898 -48.1975,25.53827 -119.7415,1.71389 -123.3203,-41.06652 -6.5285,-78.05095 163.669,-79.35804 203.973,-1.56649 17.6696,34.10434 98.6629,46.93462 295.2492,46.77248 223.8437,-0.18468 349.7683,-10.18594 249.2612,-19.79761 -92.6005,-8.85508 -190.3694,-39.99125 -411.2576,-109.51711 -69.7291,10.97862 -94.0613,17.36812 -149.8382,-9.73873 -53.7829,-26.13803 -37.1048,-8.70584 -73.1453,-11.49056 -44.5889,-3.44521 34.8091,43.67179 96.9725,57.54639 78.5225,17.52571 -21.3669,26.37531 -112.8078,-34.67315 -29.6307,-19.78185 -42.2024,-20.2091 -89.2413,-3.03227 -78.9311,28.82182 -104.9679,101.78667 -48.3485,135.4923 5.6369,3.35534 6.1861,5.77917 1.6271,7.17208 -12.5427,3.83152 -25.7372,-3.90159 -37.0432,-21.71202 -19.5012,-30.71768 -18.6805,-50.57519 3.669,-88.78445 3.7469,-6.41125 -1.5216,-10.06874 -31.6988,-22.00099 z m 309.9096,-18.94107 c 14.0029,6.02185 60.7323,9.71601 78.897,6.23747 15.2067,-2.91232 15.9426,-2.69123 -27.7352,-8.32749 -18.9135,-2.44108 -40.6642,-5.87827 -48.3372,-7.63791 -17.0818,-3.91903 -19.0224,2.76247 -2.8246,9.72793 z"
       fill="inherit"
       id="path68-5"
       style="stroke-width:0.892557" />
    <path
       d="m 1398.0282,-3.23376 c 65.7708,43.47783 66.2593,43.88521 59.1448,49.36273 -6.4422,4.95988 -20.4964,-2.80476 -112.5428,-62.18165 -86.4065,-55.73744 -139.9809,-81.02213 -139.8865,-80.97255 -144.1734,-75.96038 -285.8744,-49.52858 -299.57822,55.88338 -6.67137,51.31717 54.5214,97.53165 84.98748,64.18601 17.46514,-19.11595 6.71104,-62.95517 -13.23281,-53.94611 -4.26169,1.92466 -4.73202,4.94523 -1.43636,9.22582 6.73539,8.74831 -0.98796,21.24391 -12.22738,19.78275 -20.06615,-2.60865 -22.96439,-26.56923 -4.66533,-38.58744 37.76151,-24.80184 68.45472,22.01776 56.14792,55.45118 -15.46252,42.00715 -93.30215,49.45439 -119.78397,-9.91804 -18.6726,-41.86558 -2.76033,-91.23417 30.67963,-120.54678 91.82424,-80.49292 230.74834,-47.47863 472.39354,112.2607 z"
       fill="inherit"
       id="path72-3" />
    <path
       d="m 936.60274,-85.62443 c 0,-7.588 9.18,-6.908 30.107,2.232 246.57496,107.695 452.22296,119.324 458.23196,137.361 12.713,38.141 -488.33896,-105.777 -488.33896,-139.593 z"
       fill="inherit"
       id="path74-1" />
    <path
       d="m 1791.2385,-54.79437 3.08,-11.778 9.007,11.445 c 11.937,15.17 45.573,34.945 59.664,35.078 6.191,0.059 22.655,3.698 36.586,8.087 33.9,10.682 36.843,7.858 -9.736,8.358 -57.09,0.614 -105.566,-24.554 -98.601,-51.19 z"
       fill="inherit"
       id="path78-0" />
    <path
       d="m 2314.3349,44.38157 c 12.713,0 2.138,11.257 0,11.257 -2.018,10e-4 -12.769,-11.257 0,-11.257 z"
       fill="inherit"
       id="path80-9" />
    <path
       d="m 1784.7749,38.75357 c -17.633,0 -15.703,-13.219 2.317,-15.87 8.118,-1.194 12.224,1.169 12.224,7.036 0,5.746 -5.082,8.834 -14.541,8.834 z"
       fill="inherit"
       id="path82-1" />
    <path
       d="m 2150.2592,-174.25879 c -37.2407,-48.98888 -90.4775,-58.11488 -86.3959,-14.81084 1.3928,14.77694 15.1569,19.25889 17.0093,5.537 1.7717,-13.1275 20.9311,-8.71167 26.067,6.00751 3.21,9.19923 1.1039,12.74775 -11.3553,19.13655 -43.5134,22.31464 -70.7856,-34.86119 -31.947,-66.97685 27.9964,-23.15005 76.5629,-1.0344 107.7714,49.07568 73.5921,118.16414 211.8971,191.68406 344.1614,182.949 19.1355,-1.264 24.4716,1.47493 17.3241,8.89172 -4.0084,4.15857 -8.1072,5.91964 -52.5347,3.08244 C 2278.2418,5.72638 2210.0757,-95.57249 2150.2592,-174.25879 Z"
       fill="inherit"
       id="path84-2" />
    <path
       d="m 1816.2019,21.69057 c 0,-6.739 15.876,-13.966 20.506,-9.336 1.725,1.724 1.466,5.837 -0.575,9.138 -4.75,7.687 -19.931,7.838 -19.931,0.198 z"
       fill="inherit"
       id="path86-1" />
    <path
       d="m 2466.3099,-0.64643 c -5.164,8.356 -8.443,6.374 -8.443,0 0,-7.521 13.071,-7.49 8.443,0 z"
       fill="inherit"
       id="path88-9" />
    <path
       d="m 836.82592,-69.49243 c 35.741,17.071 21.505,26.451 -16.275,10.723 -135.718,-56.498 -238.63,-79.308 -291.705,-64.653 -43.542,12.023 -60.606,52.3 -32.509,76.73 23.367,20.318 55.364,10.026 44.745,-14.392 -4.096,-9.418 -4.434,-9.422 -6.671,-0.071 -2.557,10.691 -29.674,14.211 -29.674,3.851 0,-25.783 25.113,-38.21 43.09,-21.322 21.265,19.977 14.37,46.32 -14.947,57.099 -48.608,17.873 -88.187,-49.41 -53.391,-90.763 43.302,-51.46 199.045,-32.807 357.337,42.798 z"
       fill="inherit"
       id="path90-1" />
    <path
       d="m 241.24196,-275.95025 c 93.40694,-9.11872 111.69219,1.33008 22.82526,13.04334 -130.32438,17.17794 -187.215709,58.03438 -178.804578,128.40751 7.421362,62.09207 83.829188,101.28115 125.231748,64.23077 26.07239,-23.33108 7.71504,-79.18521 -23.70042,-72.11092 -14.80886,3.33505 -21.50533,18.1555 -7.44342,16.4748 11.00269,-1.31507 13.63385,14.61526 3.31291,20.05859 -11.44257,6.03562 -32.12262,-4.20147 -33.60894,-16.63696 -2.37769,-19.89341 16.6169,-34.1222 34.26726,-37.3779 37.55149,-6.92545 64.16772,35.40899 58.52217,68.73753 -9.65897,57.01422 -74.15333,58.79582 -117.03194,39.41054 -106.010116,-47.92772 -73.992664,-205.64809 116.42995,-224.2373 z"
       fill="inherit"
       id="path92-5" />
    <path
       d="m 832.4594,-139.20791 c 21.756,8.778 43.602,17.975 62.926,31.087 1.286,0.873 5.819,3.17 5.819,5.121 0,16.316 -107.514,-33.866 -122.008,-40.204 -119.871,-52.421 -167.382,-67.724 -229.721,-91.101 -44.044,-15.772 -60.163,-27.721 -37.395,-27.721 31.858,0 258.189,97.735 320.379,122.818 z"
       fill="inherit"
       id="path94-4" />
    <path
       d="m 1764.4909,-232.71043 c -10.437,-3.479 -12.168,-15.596 -2.228,-15.596 12.136,0 10.777,18.446 2.228,15.596 z"
       fill="inherit"
       id="path96-2" />
    <path
       d="m 465.26392,-269.93543 c 11.169,0 11.157,16.886 0,16.886 -11.169,0 -11.157,-16.886 0,-16.886 z"
       fill="inherit"
       id="path98-8" />
    <path
       d="m 409.34092,-278.00843 c 4.601,0 9.264,4.663 10.361,10.361 1.448,7.522 -0.844,9.814 -8.366,8.366 -12.318,-2.371 -14.06,-18.727 -1.995,-18.727 z"
       fill="inherit"
       id="path100-7" />
    <path
       d="m 1729.0699,-268.74143 c 15.385,5.904 -2.509,23.517 -11.603,8.803 -5.18,-8.381 0.827,-12.939 11.603,-8.803 z"
       fill="inherit"
       id="path102-1" />
    <path
       d="m 1695.4159,-259.93843 c -9.049,14.641 -27.027,-2.885 -11.603,-8.804 10.777,-4.135 16.783,0.423 11.603,8.804 z"
       fill="inherit"
       id="path104-6" />
    <path
       d="m 355.42092,-281.37843 c 9.702,-1.869 13.713,10.075 5.98,17.808 -5.9,5.9 -15.831,0.873 -15.831,-8.014 10e-4,-4.343 4.434,-8.75 9.851,-9.794 z"
       fill="inherit"
       id="path106-7" />
  </g>
</svg>
